<svg width="32" height="32" viewBox="0 0 32 32" fill="none" xmlns="http://www.w3.org/2000/svg">
<path d="M15.9999 2.66675C16.7072 2.66675 17.3854 2.9477 17.8855 3.4478C18.3856 3.94789 18.6666 4.62617 18.6666 5.33341C18.6666 6.81341 17.4799 8.00008 15.9999 8.00008C15.2927 8.00008 14.6144 7.71913 14.1143 7.21903C13.6142 6.71894 13.3332 6.04066 13.3332 5.33341C13.3332 4.62617 13.6142 3.94789 14.1143 3.4478C14.6144 2.9477 15.2927 2.66675 15.9999 2.66675ZM16.5199 19.7201C18.4139 19.7127 20.3065 19.824 22.1866 20.0534C22.2666 16.4267 21.9466 13.2267 21.3332 12.0001C21.1599 11.6401 20.9199 11.3334 20.6666 11.0667L9.90658 20.2934C11.7199 20.0001 13.9999 19.7201 16.5199 19.7201ZM9.94658 22.6667C10.1199 24.9867 10.4666 27.3334 11.0266 29.3334H13.7866C13.3999 28.1601 13.1199 26.7867 12.9066 25.3334C12.9066 25.3334 15.9999 24.7467 19.0932 25.3334C18.8799 26.7867 18.5999 28.1601 18.2132 29.3334H20.9732C21.5599 27.2667 21.9066 24.8134 22.0799 22.3867C20.235 22.1637 18.3783 22.0524 16.5199 22.0534C13.9466 22.0534 11.7066 22.3334 9.94658 22.6667ZM15.9999 9.33341C15.9999 9.33341 11.9999 9.33341 10.6666 12.0001C10.2132 12.9067 9.91991 14.8667 9.82658 17.2801L18.5599 9.78675C17.2399 9.33342 15.9999 9.33341 15.9999 9.33341ZM24.7599 7.56008L23.2399 5.78675L18.5599 9.80008C19.2932 10.0534 20.0666 10.4534 20.6666 11.0667L24.7599 7.56008ZM27.5599 21.1067C27.4399 21.0667 25.5199 20.4401 22.1866 20.0534C22.1732 20.8134 22.1332 21.6001 22.0799 22.3867C25.0799 22.7601 26.7999 23.3334 26.8266 23.3334L27.5599 21.1067ZM9.82658 17.2801L4.57324 21.7867L5.75991 23.7601C5.78658 23.7467 7.33324 23.1467 9.94658 22.6667C9.79991 20.7867 9.75991 18.9334 9.82658 17.2801Z" fill="white"/>
</svg>
