<svg width="32" height="32" viewBox="0 0 32 32" fill="none" xmlns="http://www.w3.org/2000/svg">
<path d="M16.0001 9.00008C14.6156 9.00008 13.2622 9.41062 12.1111 10.1798C10.9599 10.949 10.0627 12.0422 9.53292 13.3213C9.00311 14.6004 8.86448 16.0078 9.13458 17.3657C9.40468 18.7236 10.0714 19.9709 11.0503 20.9498C12.0293 21.9288 13.2766 22.5955 14.6344 22.8656C15.9923 23.1357 17.3998 22.997 18.6789 22.4672C19.9579 21.9374 21.0512 21.0402 21.8204 19.8891C22.5895 18.7379 23.0001 17.3845 23.0001 16.0001C23.0001 14.1436 22.2626 12.3631 20.9498 11.0503C19.6371 9.73757 17.8566 9.00008 16.0001 9.00008ZM16.0001 20.0001C15.209 20.0001 14.4356 19.7655 13.7778 19.326C13.12 18.8864 12.6073 18.2617 12.3046 17.5308C12.0018 16.7999 11.9226 15.9956 12.0769 15.2197C12.2313 14.4438 12.6122 13.7311 13.1716 13.1716C13.7311 12.6122 14.4438 12.2313 15.2197 12.0769C15.9956 11.9226 16.7999 12.0018 17.5308 12.3046C18.2617 12.6073 18.8864 13.12 19.326 13.7778C19.7655 14.4356 20.0001 15.209 20.0001 16.0001C19.9968 17.0599 19.5743 18.0754 18.8249 18.8249C18.0754 19.5743 17.0599 19.9968 16.0001 20.0001ZM29.7501 18.5001L27.9876 16.1501V15.8501L29.7501 13.5001C29.8841 13.3172 29.976 13.1069 30.0192 12.8843C30.0625 12.6617 30.0559 12.4323 30.0001 12.2126C29.6772 11.0134 29.1981 9.86189 28.5751 8.78758C28.4631 8.58896 28.3067 8.419 28.118 8.29104C27.9293 8.16308 27.7135 8.0806 27.4876 8.05008L24.6001 7.63758L24.3626 7.40008L23.9501 4.51258C23.9196 4.28664 23.8371 4.07086 23.7091 3.88217C23.5811 3.69348 23.4112 3.53702 23.2126 3.42508C22.1383 2.80209 20.9867 2.32299 19.7876 2.00008C19.5681 1.94058 19.338 1.93218 19.1148 1.97552C18.8916 2.01885 18.6813 2.11278 18.5001 2.25008L16.1626 4.00008H15.8376L13.5001 2.25008C13.3172 2.11604 13.1069 2.02412 12.8843 1.9809C12.6617 1.93768 12.4323 1.94423 12.2126 2.00008C11.0134 2.32299 9.86189 2.80209 8.78758 3.42508C8.58896 3.53702 8.419 3.69348 8.29104 3.88217C8.16308 4.07086 8.0806 4.28664 8.05008 4.51258L7.63758 7.40008C7.55227 7.47285 7.47285 7.55227 7.40008 7.63758L4.51258 8.05008C4.28664 8.0806 4.07086 8.16308 3.88217 8.29104C3.69348 8.419 3.53702 8.58896 3.42508 8.78758C2.80209 9.86189 2.32299 11.0134 2.00008 12.2126C1.94058 12.432 1.93218 12.6622 1.97552 12.8854C2.01885 13.1086 2.11278 13.3188 2.25008 13.5001L4.01258 15.8501V16.1501L2.25008 18.5001C2.11604 18.683 2.02412 18.8932 1.9809 19.1158C1.93768 19.3384 1.94423 19.5678 2.00008 19.7876C2.32299 20.9867 2.80209 22.1383 3.42508 23.2126C3.53702 23.4112 3.69348 23.5811 3.88217 23.7091C4.07086 23.8371 4.28664 23.9196 4.51258 23.9501L7.40008 24.3626L7.63758 24.6001L8.05008 27.4876C8.0806 27.7135 8.16308 27.9293 8.29104 28.118C8.419 28.3067 8.58896 28.4631 8.78758 28.5751C9.86189 29.1981 11.0134 29.6772 12.2126 30.0001C12.3386 30.0358 12.4691 30.0526 12.6001 30.0501C12.9249 30.0519 13.2413 29.9465 13.5001 29.7501L15.8376 28.0001H16.1626L18.5001 29.7501C18.683 29.8841 18.8932 29.976 19.1158 30.0192C19.3384 30.0625 19.5678 30.0559 19.7876 30.0001C20.9867 29.6772 22.1383 29.1981 23.2126 28.5751C23.4112 28.4631 23.5811 28.3067 23.7091 28.118C23.8371 27.9293 23.9196 27.7135 23.9501 27.4876L24.3751 24.5876L24.5876 24.3751L27.4876 23.9501C27.7135 23.9196 27.9293 23.8371 28.118 23.7091C28.3067 23.5811 28.4631 23.4112 28.5751 23.2126C29.1981 22.1383 29.6772 20.9867 30.0001 19.7876C30.0596 19.5681 30.068 19.338 30.0246 19.1148C29.9813 18.8916 29.8874 18.6813 29.7501 18.5001ZM26.3126 21.0876L23.6501 21.4751C23.3167 21.5243 23.009 21.6825 22.7751 21.9251C22.5626 22.1501 22.1626 22.5626 21.9626 22.7376C21.6987 22.9756 21.5263 23.2984 21.4751 23.6501L21.0876 26.3126C20.6355 26.5414 20.1676 26.7378 19.6876 26.9001L17.5376 25.2751C17.2541 25.0628 16.9032 24.9607 16.5501 24.9876H15.4501C15.0972 24.9629 14.7471 25.0649 14.4626 25.2751L12.3126 26.9001C11.8325 26.7378 11.3647 26.5414 10.9126 26.3126L10.5251 23.6501C10.4739 23.2984 10.3014 22.9756 10.0376 22.7376C9.76084 22.4983 9.50182 22.2393 9.26258 21.9626C9.0245 21.6987 8.70175 21.5263 8.35008 21.4751L5.68758 21.0876C5.45872 20.6355 5.26239 20.1676 5.10008 19.6876L6.72508 17.5376C6.92428 17.266 7.02959 16.9369 7.02508 16.6001C7.01258 16.2876 7.00008 15.7126 7.01258 15.4501C7.03721 15.0972 6.93528 14.7471 6.72508 14.4626L5.10008 12.3126C5.26239 11.8325 5.45872 11.3647 5.68758 10.9126L8.35008 10.5251C8.70175 10.4739 9.0245 10.3014 9.26258 10.0376C9.50182 9.76084 9.76084 9.50182 10.0376 9.26258C10.3014 9.0245 10.4739 8.70175 10.5251 8.35008L10.9126 5.68758C11.3647 5.45872 11.8325 5.26239 12.3126 5.10008L14.4626 6.72508C14.7461 6.93731 15.097 7.03946 15.4501 7.01258C15.8126 7.00008 16.1876 7.00008 16.5501 7.01258C16.9032 7.03946 17.2541 6.93731 17.5376 6.72508L19.6876 5.10008C20.1676 5.26239 20.6355 5.45872 21.0876 5.68758L21.4751 8.35008C21.5263 8.70175 21.6987 9.0245 21.9626 9.26258C22.2393 9.50182 22.4983 9.76084 22.7376 10.0376C22.9756 10.3014 23.2984 10.4739 23.6501 10.5251L26.3126 10.9126C26.5414 11.3647 26.7378 11.8325 26.9001 12.3126L25.2751 14.4626C25.0742 14.7327 24.9727 15.0638 24.9876 15.4001C24.9876 15.7126 25.0001 16.2876 24.9876 16.5501C24.9607 16.9032 25.0628 17.2541 25.2751 17.5376L26.9001 19.6876C26.7378 20.1676 26.5414 20.6355 26.3126 21.0876Z" fill="white"/>
</svg>
