<svg width="17" height="17" viewBox="0 0 17 17" fill="none" xmlns="http://www.w3.org/2000/svg">
<path d="M8.49978 1.41675C7.56959 1.41675 6.6485 1.59996 5.78911 1.95593C4.92972 2.31191 4.14886 2.83366 3.49111 3.49141C2.16273 4.81979 1.41645 6.62146 1.41645 8.50008C1.41026 10.1357 1.97659 11.722 3.01728 12.9838L1.60062 14.4005C1.50233 14.5001 1.43575 14.6266 1.40928 14.764C1.3828 14.9014 1.39762 15.0436 1.45187 15.1726C1.5107 15.3 1.60607 15.4071 1.72588 15.4803C1.84569 15.5534 1.98453 15.5893 2.12478 15.5834H8.49978C10.3784 15.5834 12.1801 14.8371 13.5085 13.5088C14.8368 12.1804 15.5831 10.3787 15.5831 8.50008C15.5831 6.62146 14.8368 4.81979 13.5085 3.49141C12.1801 2.16303 10.3784 1.41675 8.49978 1.41675ZM8.49978 14.1667H3.83187L4.49062 13.508C4.62254 13.3753 4.69659 13.1958 4.69659 13.0086C4.69659 12.8215 4.62254 12.642 4.49062 12.5092C3.56311 11.5828 2.98553 10.3634 2.85627 9.05881C2.72701 7.75424 3.05408 6.44521 3.78174 5.35474C4.5094 4.26428 5.59263 3.45984 6.8469 3.07848C8.10116 2.69712 9.44885 2.76244 10.6604 3.26331C11.8719 3.76418 12.8722 4.66961 13.491 5.82534C14.1098 6.98107 14.3087 8.31559 14.0539 9.60154C13.7991 10.8875 13.1063 12.0453 12.0935 12.8778C11.0808 13.7102 9.81074 14.1657 8.49978 14.1667ZM12.0414 7.79175H4.95812C4.77025 7.79175 4.59009 7.86638 4.45725 7.99921C4.32441 8.13205 4.24978 8.31222 4.24978 8.50008C4.24978 8.68794 4.32441 8.86811 4.45725 9.00095C4.59009 9.13379 4.77025 9.20841 4.95812 9.20841H12.0414C12.2293 9.20841 12.4095 9.13379 12.5423 9.00095C12.6752 8.86811 12.7498 8.68794 12.7498 8.50008C12.7498 8.31222 12.6752 8.13205 12.5423 7.99921C12.4095 7.86638 12.2293 7.79175 12.0414 7.79175ZM10.6248 10.6251H6.37478C6.18692 10.6251 6.00675 10.6997 5.87392 10.8325C5.74108 10.9654 5.66645 11.1456 5.66645 11.3334C5.66645 11.5213 5.74108 11.7014 5.87392 11.8343C6.00675 11.9671 6.18692 12.0417 6.37478 12.0417H10.6248C10.8126 12.0417 10.9928 11.9671 11.1257 11.8343C11.2585 11.7014 11.3331 11.5213 11.3331 11.3334C11.3331 11.1456 11.2585 10.9654 11.1257 10.8325C10.9928 10.6997 10.8126 10.6251 10.6248 10.6251ZM6.37478 6.37508H10.6248C10.8126 6.37508 10.9928 6.30045 11.1257 6.16762C11.2585 6.03478 11.3331 5.85461 11.3331 5.66675C11.3331 5.47889 11.2585 5.29872 11.1257 5.16588C10.9928 5.03304 10.8126 4.95841 10.6248 4.95841H6.37478C6.18692 4.95841 6.00675 5.03304 5.87392 5.16588C5.74108 5.29872 5.66645 5.47889 5.66645 5.66675C5.66645 5.85461 5.74108 6.03478 5.87392 6.16762C6.00675 6.30045 6.18692 6.37508 6.37478 6.37508Z" fill="#737373"/>
</svg>
